# xmcd
#
# Track frame offsets: 
#        150
#        10296
#        20528
#
# Disc length: 515 seconds
#
# Revision: 0
# Processed by: cddbd v1.5.2PL0 Copyright (c) Steve Scherf et al.
# Submitted via: ExactAudioCopyFreeDBPlugin 1.0
#
DISCID=19020103
DTITLE=Monopeople - Monopeople
DYEAR=2012
DGENRE=Experimentel Rock
TTITLE0=Motormann
TTITLE1=Paule
TTITLE2=Attacke
EXTD=
EXTT0=
EXTT1=
EXTT2=
PLAYORDER=
